HIERARCHY
ROOT Hips
{
	OFFSET 0.000000 0.000000 0.000000
	CHANNELS 6 Xposition Yposition Zposition Zrotation Yrotation Xrotation 
	JOINT LHipJoint
	{
		OFFSET 0.000000 0.000000 0.000000
		CHANNELS 3 Zrotation Yrotation Xrotation
		JOINT LeftUpLeg
		{
			OFFSET 1.363060 -1.794630 0.839290
			CHANNELS 3 Zrotation Yrotation Xrotation
			JOINT LeftLeg
			{
				OFFSET 2.448110 -6.726130 0.000000
				CHANNELS 3 Zrotation Yrotation Xrotation
				JOINT LeftFoot
				{
					OFFSET 2.562200 -7.039590 0.000000
					CHANNELS 3 Zrotation Yrotation Xrotation
					JOINT LeftToeBase
					{
						OFFSET 0.157640 -0.433110 2.322550
						CHANNELS 3 Zrotation Yrotation Xrotation
						End Site
						{
							OFFSET 0.000000 0.000000 0.000000
						}
					}
				}
			}
		}
	}
	JOINT RHipJoint
	{
		OFFSET 0.000000 0.000000 0.000000
		CHANNELS 3 Zrotation Yrotation Xrotation
		JOINT RightUpLeg
		{
			OFFSET -1.305520 -1.794630 0.839290
			CHANNELS 3 Zrotation Yrotation Xrotation
			JOINT RightLeg
			{
				OFFSET -2.542530 -6.985550 0.000000
				CHANNELS 3 Zrotation Yrotation Xrotation
				JOINT RightFoot
				{
					OFFSET -2.568260 -7.056230 0.000000
					CHANNELS 3 Zrotation Yrotation Xrotation
					JOINT RightToeBase
					{
						OFFSET -0.164730 -0.452590 2.363150
						CHANNELS 3 Zrotation Yrotation Xrotation
						End Site
						{
							OFFSET 0.000000 0.000000 0.000000
						}
					}
				}
			}
		}
	}
	JOINT LowerBack
	{
		OFFSET 0.000000 0.000000 0.000000
		CHANNELS 3 Zrotation Yrotation Xrotation
		JOINT Spine
		{
			OFFSET 0.028270 2.035590 -0.193380
			CHANNELS 3 Zrotation Yrotation Xrotation
			JOINT Spine1
			{
				OFFSET 0.056720 2.048850 -0.042750
				CHANNELS 3 Zrotation Yrotation Xrotation
				JOINT Neck
				{
					OFFSET 0.000000 0.000000 0.000000
					CHANNELS 3 Zrotation Yrotation Xrotation
					JOINT Neck1
					{
						OFFSET -0.054170 1.746240 0.172020
						CHANNELS 3 Zrotation Yrotation Xrotation
						JOINT Head
						{
							OFFSET 0.104070 1.761360 -0.123970
							CHANNELS 3 Zrotation Yrotation Xrotation
							End Site
							{
								OFFSET 0.000000 0.000000 0.000000
							}
						}
					}
				}
				JOINT LeftShoulder
				{
					OFFSET 0.000000 0.000000 0.000000
					CHANNELS 3 Zrotation Yrotation Xrotation
					JOINT LeftArm
					{
						OFFSET 3.362410 1.200890 -0.311210
						CHANNELS 3 Zrotation Yrotation Xrotation
						JOINT LeftForeArm
						{
							OFFSET 4.983000 -0.000000 -0.000000
							CHANNELS 3 Zrotation Yrotation Xrotation
							JOINT LeftHand
							{
								OFFSET 3.483560 -0.000000 -0.000000
								CHANNELS 3 Zrotation Yrotation Xrotation
								JOINT LeftFingerBase
								{
									OFFSET 0.000000 0.000000 0.000000
									CHANNELS 3 Zrotation Yrotation Xrotation
									JOINT LeftHandIndex1
									{
										OFFSET 0.715260 -0.000000 -0.000000
										CHANNELS 3 Zrotation Yrotation Xrotation
										End Site
										{
											OFFSET 0.000000 0.000000 0.000000
										}
									}
								}
								JOINT LThumb
								{
									OFFSET 0.000000 0.000000 0.000000
									CHANNELS 3 Zrotation Yrotation Xrotation
									End Site
									{
										OFFSET 0.000000 0.000000 0.000000
									}
								}
							}
						}
					}
				}
				JOINT RightShoulder
				{
					OFFSET 0.000000 0.000000 0.000000
					CHANNELS 3 Zrotation Yrotation Xrotation
					JOINT RightArm
					{
						OFFSET -3.136600 1.374050 -0.404650
						CHANNELS 3 Zrotation Yrotation Xrotation
						JOINT RightForeArm
						{
							OFFSET -5.241900 -0.000000 -0.000000
							CHANNELS 3 Zrotation Yrotation Xrotation
							JOINT RightHand
							{
								OFFSET -3.444170 -0.000000 -0.000000
								CHANNELS 3 Zrotation Yrotation Xrotation
								JOINT RightFingerBase
								{
									OFFSET 0.000000 0.000000 0.000000
									CHANNELS 3 Zrotation Yrotation Xrotation
									JOINT RightHandIndex1
									{
										OFFSET -0.622530 -0.000000 -0.000000
										CHANNELS 3 Zrotation Yrotation Xrotation
										End Site
										{
											OFFSET 0.000000 0.000000 0.000000
										}
									}
								}
								JOINT RThumb
								{
									OFFSET 0.000000 0.000000 0.000000
									CHANNELS 3 Zrotation Yrotation Xrotation
									End Site
									{
										OFFSET 0.000000 0.000000 0.000000
									}
								}
							}
						}
					}
				}
			}
		}
	}
}
MOTION
Frames: 7
Frame Time: 0.008333
22.985507 17.581364 -1.326753 177.686191 -84.921438 -171.655353 4.599489 1.642051 -0.975945 -18.586794 -13.554904 -24.340050 1.800748 12.583442 33.579160 -3.173466 12.741322 6.645495 0.564500 -4.812300 -13.374100 -10.166937 -3.371623 -2.655559 32.411369 1.607537 -10.417444 -2.054719 -9.801318 30.010859 -0.774809 -1.623471 -13.786093 -0.177700 2.715600 -7.488000 2.311793 3.743546 6.267069 -0.194106 4.950982 -4.148902 -3.096561 2.285543 -8.458495 -7.894262 -4.144380 -12.454459 6.984562 -4.922882 4.266025 4.273300 -2.276400 2.717700 3.197141 -12.193006 1.826893 -96.789326 3.209764 -13.793653 19.672512 -30.285523 -8.310484 2.792222 3.394366 15.704207 52.258747 43.533013 37.418400 -7.125000 0.000000 0.000000 41.841500 79.295900 34.169400 -4.690553 11.793727 2.565998 96.289313 -0.786202 -11.782346 -15.147074 29.336718 -5.467388 -2.041131 1.990727 5.585616 -10.761030 43.294810 -5.672300 7.125000 0.000000 0.000000 13.958500 11.134400 16.847100 
22.877054 17.623547 -1.287235 174.449385 -84.902131 -168.273408 4.531161 1.594574 -0.991941 -19.117969 -13.459256 -24.046982 1.771790 12.520042 33.394622 -3.540132 13.513180 6.214358 0.905500 -6.064000 -16.970400 -10.208838 -3.452653 -2.690278 32.019427 1.458452 -9.715573 -1.900025 -9.486340 29.121724 -0.667008 -1.963776 -13.682474 -0.219800 3.017900 -8.328700 1.835861 3.790473 5.512975 -0.182575 4.964484 -4.112271 -2.881276 2.310499 -7.962214 -7.777847 -4.150487 -12.507619 6.942336 -4.959594 4.299659 4.218400 -2.296300 2.674300 3.078443 -12.196743 2.082266 -97.834151 6.403348 -10.070360 23.721539 -34.627290 -10.060290 2.369799 3.592553 13.595514 50.041136 46.603704 37.264600 -7.125000 0.000000 0.000000 39.296400 81.925500 33.892900 -4.681276 11.734071 2.497119 96.352123 -0.707482 -12.783416 -14.837073 28.904121 -5.345242 -2.024916 2.006394 5.739292 -10.971764 43.043613 -5.792900 7.125000 0.000000 0.000000 13.819500 10.915700 16.628600 
22.771486 17.652742 -1.245385 171.053794 -84.847957 -164.780803 4.485891 1.534584 -1.002612 -19.687651 -13.371714 -23.862443 1.795345 12.526124 33.471622 -3.714135 13.876294 6.008106 1.083900 -6.617000 -18.585600 -10.237101 -3.534604 -2.695296 31.573261 1.444820 -9.046880 -1.777540 -9.222737 28.393122 -0.576412 -2.254293 -13.612399 -0.257800 3.266800 -9.022500 1.398505 3.827217 4.991852 -0.193077 4.982743 -4.128992 -2.730139 2.324729 -7.815551 -7.657286 -4.177348 -12.551193 6.847761 -5.016917 4.474707 4.132400 -2.330700 2.743800 3.111894 -12.208284 2.074809 -97.948438 6.491161 -10.207788 23.445413 -34.424328 -9.951040 2.471118 3.540982 13.779251 51.067850 45.819572 37.757800 -7.125000 0.000000 0.000000 42.080100 81.341300 35.933200 -4.718865 11.727513 2.478751 96.542880 -0.867310 -13.717930 -14.604226 28.577540 -5.260803 -2.026973 2.018027 5.807482 -11.291055 42.878195 -5.985200 7.125000 0.000000 0.000000 13.645200 10.803100 16.386300 
22.666363 17.682824 -1.204535 167.180621 -84.926229 -160.846739 4.451461 1.457021 -1.004261 -20.194279 -13.453425 -23.601918 1.824242 12.533013 33.628045 -3.623841 13.626348 5.858849 0.975700 -6.288200 -17.623000 -10.259294 -3.627849 -2.694501 31.140064 1.451042 -8.240652 -1.622399 -8.902329 27.502795 -0.437776 -2.721028 -13.575611 -0.281300 3.411400 -9.426300 0.973453 3.791341 4.595261 -0.205071 4.914907 -4.166607 -2.609269 2.289426 -7.793363 -7.619831 -4.228067 -12.536050 6.787477 -5.104652 4.690583 4.082100 -2.383100 2.836700 3.144963 -12.240362 2.062198 -98.051409 6.584446 -10.413635 23.181776 -34.195024 -9.800609 2.445127 3.543181 14.093045 49.656734 44.697011 35.800700 -7.125000 0.000000 0.000000 34.540400 79.932000 28.409500 -4.759843 11.732162 2.459575 96.750272 -1.114984 -14.542894 -14.407737 28.305370 -5.188244 -2.038795 2.017472 5.863972 -11.705314 42.639797 -6.227700 7.125000 0.000000 0.000000 13.420400 10.649700 16.073600 
22.560240 17.710687 -1.166570 160.927983 -85.198191 -154.710262 4.427604 1.338692 -1.022334 -20.849743 -13.499297 -23.127766 1.856691 12.514391 33.824630 -3.345286 12.923535 5.695897 0.862200 -5.921200 -16.556000 -10.244240 -3.756726 -2.665048 30.567255 1.522249 -7.299583 -1.494936 -8.645606 26.809501 -0.321825 -3.235178 -13.988250 -0.228400 3.076100 -8.490700 0.330542 3.787763 4.411342 -0.243299 4.902801 -4.207842 -2.525663 2.272615 -7.935701 -7.530436 -4.357841 -12.177131 6.856651 -5.321918 4.728484 4.075500 -2.498200 2.796600 3.146073 -12.290304 2.073437 -97.890178 6.891380 -10.070527 22.980169 -34.042835 -9.668781 2.339642 3.572373 14.345343 47.450688 43.825338 33.345900 -7.125000 0.000000 0.000000 26.595100 78.464600 20.972900 -4.803495 11.757699 2.450707 97.178661 -1.502004 -15.647343 -14.361082 28.159784 -5.151836 -2.057983 1.998130 5.813834 -12.225246 42.365172 -6.535400 7.125000 0.000000 0.000000 13.140500 10.496100 15.693400 
22.455450 17.756311 -1.127718 154.914306 -85.392485 -148.809244 4.451038 1.239656 -1.055290 -21.603854 -13.151770 -22.936826 1.903035 12.518036 34.036024 -3.169056 12.506946 5.776341 1.068900 -6.572600 -18.455300 -10.183395 -3.856833 -2.619444 29.995587 1.767673 -6.368670 -1.384419 -8.431296 26.237563 -0.234828 -3.710894 -14.612095 -0.143300 2.439300 -6.721300 -0.304403 3.899233 4.269862 -0.303896 5.041668 -4.260088 -2.534117 2.326438 -8.140906 -7.256623 -4.570696 -11.829186 6.859940 -5.664526 4.776730 3.992200 -2.675900 2.770500 3.126258 -12.335112 2.094874 -97.515098 7.384817 -9.158185 22.830458 -33.985467 -9.589357 2.260370 3.584471 14.250168 46.438411 43.319538 32.202700 -7.125000 0.000000 0.000000 23.570900 77.651800 18.159500 -4.844022 11.805183 2.436522 97.777294 -1.923658 -17.010794 -14.431088 28.102395 -5.134087 -2.060832 1.977292 5.694459 -12.465955 42.121938 -6.669400 7.125000 0.000000 0.000000 12.991300 10.318300 15.474200 
22.353435 17.760085 -1.082316 150.518243 -85.515284 -144.412355 4.489141 1.178377 -1.080050 -22.227242 -12.789831 -22.700775 1.911552 12.478112 34.103256 -2.920480 11.912607 5.806732 1.085600 -6.622000 -18.600200 -10.117710 -3.918746 -2.580176 29.574565 2.061970 -5.748621 -1.308422 -8.323806 25.950569 -0.063243 -4.433906 -15.081205 -0.185900 2.777300 -7.659300 -0.695774 3.954832 3.945735 -0.345119 5.102627 -4.296033 -2.536674 2.346098 -8.160158 -7.099719 -4.730730 -11.726501 6.787915 -5.918910 5.012083 3.906700 -2.811800 2.862500 3.113629 -12.365625 2.104099 -97.280539 7.718628 -8.538325 22.698485 -33.941085 -9.540699 2.236862 3.594263 14.077772 46.427365 43.469699 32.286400 -7.125000 0.000000 0.000000 23.618500 77.805200 18.269900 -4.874668 11.821651 2.419420 98.194701 -2.278861 -17.990568 -14.475975 28.058354 -5.110645 -2.053770 1.958293 5.490932 -12.374099 41.906873 -6.591000 7.125000 0.000000 0.000000 13.003700 10.099600 15.449600 
